<?xml version="1.0" encoding="UTF-8" standalone="no"?>
<!DOCTYPE svg PUBLIC "-//W3C//DTD SVG 1.1//EN"
 "http://www.w3.org/Graphics/SVG/1.1/DTD/svg11.dtd">
<!-- Generated by graphviz version 2.43.0 (0)
 -->
<!-- Title: BuildGraph Pages: 1 -->
<svg width="463pt" height="476pt"
 viewBox="0.00 0.00 463.00 476.00" xmlns="http://www.w3.org/2000/svg" xmlns:xlink="http://www.w3.org/1999/xlink">
<g id="graph0" class="graph" transform="scale(1 1) rotate(0) translate(4 472)">
<title>BuildGraph</title>
<polygon fill="white" stroke="transparent" points="-4,4 -4,-472 459,-472 459,4 -4,4"/>
<!-- base&#45;files -->
<g id="node1" class="node">
<title>base&#45;files</title>
<polygon fill="red" stroke="black" points="352,-468 269,-468 269,-432 352,-432 352,-468"/>
<text text-anchor="middle" x="310.5" y="-446.3" font-family="Times,serif" font-size="14.00">base&#45;files</text>
</g>
<!-- base&#45;passwd -->
<g id="node2" class="node">
<title>base&#45;passwd</title>
<polygon fill="red" stroke="black" points="265,-396 158,-396 158,-360 265,-360 265,-396"/>
<text text-anchor="middle" x="211.5" y="-374.3" font-family="Times,serif" font-size="14.00">base&#45;passwd</text>
</g>
<!-- base&#45;files&#45;&gt;base&#45;passwd -->
<g id="edge1" class="edge">
<title>base&#45;files&#45;&gt;base&#45;passwd</title>
<path fill="none" stroke="black" d="M286.28,-431.88C273.58,-422.89 257.84,-411.76 244.08,-402.03"/>
<polygon fill="black" stroke="black" points="246,-399.11 235.81,-396.19 241.96,-404.82 246,-399.11"/>
</g>
<!-- apt -->
<g id="node9" class="node">
<title>apt</title>
<polygon fill="lightblue" stroke="black" points="337.5,-396 283.5,-396 283.5,-360 337.5,-360 337.5,-396"/>
<text text-anchor="middle" x="310.5" y="-374.3" font-family="Times,serif" font-size="14.00">apt</text>
</g>
<!-- base&#45;files&#45;&gt;apt -->
<g id="edge8" class="edge">
<title>base&#45;files&#45;&gt;apt</title>
<path fill="none" stroke="black" d="M310.5,-431.7C310.5,-423.98 310.5,-414.71 310.5,-406.11"/>
<polygon fill="black" stroke="black" points="314,-406.1 310.5,-396.1 307,-406.1 314,-406.1"/>
</g>
<!-- netbase -->
<g id="node13" class="node">
<title>netbase</title>
<polygon fill="lightblue" stroke="black" points="429,-396 356,-396 356,-360 429,-360 429,-396"/>
<text text-anchor="middle" x="392.5" y="-374.3" font-family="Times,serif" font-size="14.00">netbase</text>
</g>
<!-- base&#45;files&#45;&gt;netbase -->
<g id="edge12" class="edge">
<title>base&#45;files&#45;&gt;netbase</title>
<path fill="none" stroke="black" d="M330.77,-431.7C341,-422.97 353.56,-412.24 364.68,-402.75"/>
<polygon fill="black" stroke="black" points="367.13,-405.26 372.46,-396.1 362.59,-399.94 367.13,-405.26"/>
</g>
<!-- bash -->
<g id="node3" class="node">
<title>bash</title>
<polygon fill="red" stroke="black" points="238.5,-324 184.5,-324 184.5,-288 238.5,-288 238.5,-324"/>
<text text-anchor="middle" x="211.5" y="-302.3" font-family="Times,serif" font-size="14.00">bash</text>
</g>
<!-- base&#45;passwd&#45;&gt;bash -->
<g id="edge2" class="edge">
<title>base&#45;passwd&#45;&gt;bash</title>
<path fill="none" stroke="black" d="M211.5,-359.7C211.5,-351.98 211.5,-342.71 211.5,-334.11"/>
<polygon fill="black" stroke="black" points="215,-334.1 211.5,-324.1 208,-334.1 215,-334.1"/>
</g>
<!-- coreutils -->
<g id="node4" class="node">
<title>coreutils</title>
<polygon fill="lightblue" stroke="black" points="186,-252 107,-252 107,-216 186,-216 186,-252"/>
<text text-anchor="middle" x="146.5" y="-230.3" font-family="Times,serif" font-size="14.00">coreutils</text>
</g>
<!-- bash&#45;&gt;coreutils -->
<g id="edge3" class="edge">
<title>bash&#45;&gt;coreutils</title>
<path fill="none" stroke="black" d="M195.43,-287.7C187.56,-279.22 177.94,-268.86 169.33,-259.58"/>
<polygon fill="black" stroke="black" points="171.75,-257.05 162.38,-252.1 166.62,-261.81 171.75,-257.05"/>
</g>
<!-- systemd -->
<g id="node7" class="node">
<title>systemd</title>
<polygon fill="lightblue" stroke="black" points="281,-252 204,-252 204,-216 281,-216 281,-252"/>
<text text-anchor="middle" x="242.5" y="-230.3" font-family="Times,serif" font-size="14.00">systemd</text>
</g>
<!-- bash&#45;&gt;systemd -->
<g id="edge6" class="edge">
<title>bash&#45;&gt;systemd</title>
<path fill="none" stroke="black" d="M219.16,-287.7C222.69,-279.73 226.96,-270.1 230.87,-261.26"/>
<polygon fill="black" stroke="black" points="234.08,-262.67 234.93,-252.1 227.68,-259.83 234.08,-262.67"/>
</g>
<!-- make -->
<g id="node5" class="node">
<title>make</title>
<polygon fill="lightblue" stroke="black" points="105,-180 50,-180 50,-144 105,-144 105,-180"/>
<text text-anchor="middle" x="77.5" y="-158.3" font-family="Times,serif" font-size="14.00">make</text>
</g>
<!-- coreutils&#45;&gt;make -->
<g id="edge4" class="edge">
<title>coreutils&#45;&gt;make</title>
<path fill="none" stroke="black" d="M129.44,-215.7C121,-207.14 110.68,-196.66 101.46,-187.3"/>
<polygon fill="black" stroke="black" points="103.87,-184.77 94.36,-180.1 98.89,-189.68 103.87,-184.77"/>
</g>
<!-- gzip -->
<g id="node10" class="node">
<title>gzip</title>
<polygon fill="lightblue" stroke="black" points="185.5,-180 131.5,-180 131.5,-144 185.5,-144 185.5,-180"/>
<text text-anchor="middle" x="158.5" y="-158.3" font-family="Times,serif" font-size="14.00">gzip</text>
</g>
<!-- coreutils&#45;&gt;gzip -->
<g id="edge9" class="edge">
<title>coreutils&#45;&gt;gzip</title>
<path fill="none" stroke="black" d="M149.47,-215.7C150.79,-207.98 152.38,-198.71 153.85,-190.11"/>
<polygon fill="black" stroke="black" points="157.33,-190.55 155.57,-180.1 150.43,-189.37 157.33,-190.55"/>
</g>
<!-- build&#45;essential -->
<g id="node6" class="node">
<title>build&#45;essential</title>
<polygon fill="lightblue" stroke="black" points="121,-108 0,-108 0,-72 121,-72 121,-108"/>
<text text-anchor="middle" x="60.5" y="-86.3" font-family="Times,serif" font-size="14.00">build&#45;essential</text>
</g>
<!-- make&#45;&gt;build&#45;essential -->
<g id="edge5" class="edge">
<title>make&#45;&gt;build&#45;essential</title>
<path fill="none" stroke="black" d="M73.3,-143.7C71.4,-135.9 69.12,-126.51 67.02,-117.83"/>
<polygon fill="black" stroke="black" points="70.42,-117 64.65,-108.1 63.61,-118.65 70.42,-117"/>
</g>
<!-- udev -->
<g id="node8" class="node">
<title>udev</title>
<polygon fill="lightblue" stroke="black" points="269.5,-180 215.5,-180 215.5,-144 269.5,-144 269.5,-180"/>
<text text-anchor="middle" x="242.5" y="-158.3" font-family="Times,serif" font-size="14.00">udev</text>
</g>
<!-- systemd&#45;&gt;udev -->
<g id="edge7" class="edge">
<title>systemd&#45;&gt;udev</title>
<path fill="none" stroke="black" d="M242.5,-215.7C242.5,-207.98 242.5,-198.71 242.5,-190.11"/>
<polygon fill="black" stroke="black" points="246,-190.1 242.5,-180.1 239,-190.1 246,-190.1"/>
</g>
<!-- bzip2 -->
<g id="node11" class="node">
<title>bzip2</title>
<polygon fill="lightblue" stroke="black" points="195.5,-108 139.5,-108 139.5,-72 195.5,-72 195.5,-108"/>
<text text-anchor="middle" x="167.5" y="-86.3" font-family="Times,serif" font-size="14.00">bzip2</text>
</g>
<!-- gzip&#45;&gt;bzip2 -->
<g id="edge10" class="edge">
<title>gzip&#45;&gt;bzip2</title>
<path fill="none" stroke="black" d="M160.72,-143.7C161.72,-135.98 162.91,-126.71 164.01,-118.11"/>
<polygon fill="black" stroke="black" points="167.5,-118.47 165.3,-108.1 160.55,-117.58 167.5,-118.47"/>
</g>
<!-- xz&#45;utils -->
<g id="node12" class="node">
<title>xz&#45;utils</title>
<polygon fill="lightblue" stroke="black" points="201.5,-36 133.5,-36 133.5,0 201.5,0 201.5,-36"/>
<text text-anchor="middle" x="167.5" y="-14.3" font-family="Times,serif" font-size="14.00">xz&#45;utils</text>
</g>
<!-- bzip2&#45;&gt;xz&#45;utils -->
<g id="edge11" class="edge">
<title>bzip2&#45;&gt;xz&#45;utils</title>
<path fill="none" stroke="black" d="M167.5,-71.7C167.5,-63.98 167.5,-54.71 167.5,-46.11"/>
<polygon fill="black" stroke="black" points="171,-46.1 167.5,-36.1 164,-46.1 171,-46.1"/>
</g>
<!-- iproute2 -->
<g id="node14" class="node">
<title>iproute2</title>
<polygon fill="lightblue" stroke="black" points="431,-324 354,-324 354,-288 431,-288 431,-324"/>
<text text-anchor="middle" x="392.5" y="-302.3" font-family="Times,serif" font-size="14.00">iproute2</text>
</g>
<!-- netbase&#45;&gt;iproute2 -->
<g id="edge13" class="edge">
<title>netbase&#45;&gt;iproute2</title>
<path fill="none" stroke="black" d="M392.5,-359.7C392.5,-351.98 392.5,-342.71 392.5,-334.11"/>
<polygon fill="black" stroke="black" points="396,-334.1 392.5,-324.1 389,-334.1 396,-334.1"/>
</g>
<!-- openssh&#45;server -->
<g id="node15" class="node">
<title>openssh&#45;server</title>
<polygon fill="lightblue" stroke="black" points="455,-252 330,-252 330,-216 455,-216 455,-252"/>
<text text-anchor="middle" x="392.5" y="-230.3" font-family="Times,serif" font-size="14.00">openssh&#45;server</text>
</g>
<!-- iproute2&#45;&gt;openssh&#45;server -->
<g id="edge14" class="edge">
<title>iproute2&#45;&gt;openssh&#45;server</title>
<path fill="none" stroke="black" d="M392.5,-287.7C392.5,-279.98 392.5,-270.71 392.5,-262.11"/>
<polygon fill="black" stroke="black" points="396,-262.1 392.5,-252.1 389,-262.1 396,-262.1"/>
</g>
</g>
</svg>
