<?xml version="1.0" encoding="UTF-8" standalone="no"?>
<!DOCTYPE svg PUBLIC "-//W3C//DTD SVG 1.1//EN"
 "http://www.w3.org/Graphics/SVG/1.1/DTD/svg11.dtd">
<!-- Generated by graphviz version 2.43.0 (0)
 -->
<!-- Title: LinearBuildOrder Pages: 1 -->
<svg width="4243pt" height="44pt"
 viewBox="0.00 0.00 4243.00 44.00" xmlns="http://www.w3.org/2000/svg" xmlns:xlink="http://www.w3.org/1999/xlink">
<g id="graph0" class="graph" transform="scale(1 1) rotate(0) translate(4 40)">
<title>LinearBuildOrder</title>
<polygon fill="white" stroke="transparent" points="-4,4 -4,-40 4239,-40 4239,4 -4,4"/>
<!-- apt -->
<g id="node1" class="node">
<title>apt</title>
<polygon fill="lightgreen" stroke="black" points="54,-36 0,-36 0,0 54,0 54,-36"/>
<text text-anchor="middle" x="27" y="-14.3" font-family="Times,serif" font-size="14.00">apt</text>
</g>
<!-- base&#45;files -->
<g id="node2" class="node">
<title>base&#45;files</title>
<polygon fill="lightgreen" stroke="black" points="173,-36 90,-36 90,0 173,0 173,-36"/>
<text text-anchor="middle" x="131.5" y="-14.3" font-family="Times,serif" font-size="14.00">base&#45;files</text>
</g>
<!-- apt&#45;&gt;base&#45;files -->
<g id="edge1" class="edge">
<title>apt&#45;&gt;base&#45;files</title>
<path fill="none" stroke="black" d="M54.13,-18C61.89,-18 70.67,-18 79.44,-18"/>
<polygon fill="black" stroke="black" points="79.67,-21.5 89.67,-18 79.67,-14.5 79.67,-21.5"/>
</g>
<!-- base&#45;passwd -->
<g id="node3" class="node">
<title>base&#45;passwd</title>
<polygon fill="lightgreen" stroke="black" points="316,-36 209,-36 209,0 316,0 316,-36"/>
<text text-anchor="middle" x="262.5" y="-14.3" font-family="Times,serif" font-size="14.00">base&#45;passwd</text>
</g>
<!-- base&#45;files&#45;&gt;base&#45;passwd -->
<g id="edge2" class="edge">
<title>base&#45;files&#45;&gt;base&#45;passwd</title>
<path fill="none" stroke="black" d="M173.32,-18C181.38,-18 190.02,-18 198.62,-18"/>
<polygon fill="black" stroke="black" points="198.66,-21.5 208.66,-18 198.66,-14.5 198.66,-21.5"/>
</g>
<!-- bash -->
<g id="node4" class="node">
<title>bash</title>
<polygon fill="lightgreen" stroke="black" points="406,-36 352,-36 352,0 406,0 406,-36"/>
<text text-anchor="middle" x="379" y="-14.3" font-family="Times,serif" font-size="14.00">bash</text>
</g>
<!-- base&#45;passwd&#45;&gt;bash -->
<g id="edge3" class="edge">
<title>base&#45;passwd&#45;&gt;bash</title>
<path fill="none" stroke="black" d="M316.06,-18C324.72,-18 333.53,-18 341.69,-18"/>
<polygon fill="black" stroke="black" points="341.96,-21.5 351.96,-18 341.96,-14.5 341.96,-21.5"/>
</g>
<!-- build&#45;essential -->
<g id="node5" class="node">
<title>build&#45;essential</title>
<polygon fill="lightgreen" stroke="black" points="563,-36 442,-36 442,0 563,0 563,-36"/>
<text text-anchor="middle" x="502.5" y="-14.3" font-family="Times,serif" font-size="14.00">build&#45;essential</text>
</g>
<!-- bash&#45;&gt;build&#45;essential -->
<g id="edge4" class="edge">
<title>bash&#45;&gt;build&#45;essential</title>
<path fill="none" stroke="black" d="M406.06,-18C413.66,-18 422.35,-18 431.32,-18"/>
<polygon fill="black" stroke="black" points="431.52,-21.5 441.52,-18 431.52,-14.5 431.52,-21.5"/>
</g>
<!-- bzip2 -->
<g id="node6" class="node">
<title>bzip2</title>
<polygon fill="lightgreen" stroke="black" points="655,-36 599,-36 599,0 655,0 655,-36"/>
<text text-anchor="middle" x="627" y="-14.3" font-family="Times,serif" font-size="14.00">bzip2</text>
</g>
<!-- build&#45;essential&#45;&gt;bzip2 -->
<g id="edge5" class="edge">
<title>build&#45;essential&#45;&gt;bzip2</title>
<path fill="none" stroke="black" d="M563.31,-18C572.01,-18 580.75,-18 588.83,-18"/>
<polygon fill="black" stroke="black" points="589,-21.5 599,-18 589,-14.5 589,-21.5"/>
</g>
<!-- ca&#45;certificates -->
<g id="node7" class="node">
<title>ca&#45;certificates</title>
<polygon fill="lightgreen" stroke="black" points="807,-36 691,-36 691,0 807,0 807,-36"/>
<text text-anchor="middle" x="749" y="-14.3" font-family="Times,serif" font-size="14.00">ca&#45;certificates</text>
</g>
<!-- bzip2&#45;&gt;ca&#45;certificates -->
<g id="edge6" class="edge">
<title>bzip2&#45;&gt;ca&#45;certificates</title>
<path fill="none" stroke="black" d="M655.23,-18C662.97,-18 671.75,-18 680.76,-18"/>
<polygon fill="black" stroke="black" points="680.98,-21.5 690.98,-18 680.98,-14.5 680.98,-21.5"/>
</g>
<!-- coreutils -->
<g id="node8" class="node">
<title>coreutils</title>
<polygon fill="lightgreen" stroke="black" points="922,-36 843,-36 843,0 922,0 922,-36"/>
<text text-anchor="middle" x="882.5" y="-14.3" font-family="Times,serif" font-size="14.00">coreutils</text>
</g>
<!-- ca&#45;certificates&#45;&gt;coreutils -->
<g id="edge7" class="edge">
<title>ca&#45;certificates&#45;&gt;coreutils</title>
<path fill="none" stroke="black" d="M807.3,-18C815.76,-18 824.42,-18 832.69,-18"/>
<polygon fill="black" stroke="black" points="832.93,-21.5 842.93,-18 832.93,-14.5 832.93,-21.5"/>
</g>
<!-- curl -->
<g id="node9" class="node">
<title>curl</title>
<polygon fill="lightgreen" stroke="black" points="1012,-36 958,-36 958,0 1012,0 1012,-36"/>
<text text-anchor="middle" x="985" y="-14.3" font-family="Times,serif" font-size="14.00">curl</text>
</g>
<!-- coreutils&#45;&gt;curl -->
<g id="edge8" class="edge">
<title>coreutils&#45;&gt;curl</title>
<path fill="none" stroke="black" d="M922.07,-18C930.48,-18 939.34,-18 947.66,-18"/>
<polygon fill="black" stroke="black" points="947.82,-21.5 957.82,-18 947.82,-14.5 947.82,-21.5"/>
</g>
<!-- dash -->
<g id="node10" class="node">
<title>dash</title>
<polygon fill="lightgreen" stroke="black" points="1102,-36 1048,-36 1048,0 1102,0 1102,-36"/>
<text text-anchor="middle" x="1075" y="-14.3" font-family="Times,serif" font-size="14.00">dash</text>
</g>
<!-- curl&#45;&gt;dash -->
<g id="edge9" class="edge">
<title>curl&#45;&gt;dash</title>
<path fill="none" stroke="black" d="M1012.4,-18C1020.39,-18 1029.31,-18 1037.82,-18"/>
<polygon fill="black" stroke="black" points="1037.92,-21.5 1047.92,-18 1037.92,-14.5 1037.92,-21.5"/>
</g>
<!-- diffutils -->
<g id="node11" class="node">
<title>diffutils</title>
<polygon fill="lightgreen" stroke="black" points="1209,-36 1138,-36 1138,0 1209,0 1209,-36"/>
<text text-anchor="middle" x="1173.5" y="-14.3" font-family="Times,serif" font-size="14.00">diffutils</text>
</g>
<!-- dash&#45;&gt;diffutils -->
<g id="edge10" class="edge">
<title>dash&#45;&gt;diffutils</title>
<path fill="none" stroke="black" d="M1102.11,-18C1109.98,-18 1118.84,-18 1127.56,-18"/>
<polygon fill="black" stroke="black" points="1127.66,-21.5 1137.66,-18 1127.66,-14.5 1127.66,-21.5"/>
</g>
<!-- e2fsprogs -->
<g id="node12" class="node">
<title>e2fsprogs</title>
<polygon fill="lightgreen" stroke="black" points="1332,-36 1245,-36 1245,0 1332,0 1332,-36"/>
<text text-anchor="middle" x="1288.5" y="-14.3" font-family="Times,serif" font-size="14.00">e2fsprogs</text>
</g>
<!-- diffutils&#45;&gt;e2fsprogs -->
<g id="edge11" class="edge">
<title>diffutils&#45;&gt;e2fsprogs</title>
<path fill="none" stroke="black" d="M1209.02,-18C1217.13,-18 1225.97,-18 1234.69,-18"/>
<polygon fill="black" stroke="black" points="1234.81,-21.5 1244.81,-18 1234.81,-14.5 1234.81,-21.5"/>
</g>
<!-- file -->
<g id="node13" class="node">
<title>file</title>
<polygon fill="lightgreen" stroke="black" points="1422,-36 1368,-36 1368,0 1422,0 1422,-36"/>
<text text-anchor="middle" x="1395" y="-14.3" font-family="Times,serif" font-size="14.00">file</text>
</g>
<!-- e2fsprogs&#45;&gt;file -->
<g id="edge12" class="edge">
<title>e2fsprogs&#45;&gt;file</title>
<path fill="none" stroke="black" d="M1332,-18C1340.51,-18 1349.37,-18 1357.64,-18"/>
<polygon fill="black" stroke="black" points="1357.73,-21.5 1367.73,-18 1357.73,-14.5 1357.73,-21.5"/>
</g>
<!-- findutils -->
<g id="node14" class="node">
<title>findutils</title>
<polygon fill="lightgreen" stroke="black" points="1533,-36 1458,-36 1458,0 1533,0 1533,-36"/>
<text text-anchor="middle" x="1495.5" y="-14.3" font-family="Times,serif" font-size="14.00">findutils</text>
</g>
<!-- file&#45;&gt;findutils -->
<g id="edge13" class="edge">
<title>file&#45;&gt;findutils</title>
<path fill="none" stroke="black" d="M1422.14,-18C1430,-18 1438.89,-18 1447.66,-18"/>
<polygon fill="black" stroke="black" points="1447.86,-21.5 1457.86,-18 1447.86,-14.5 1447.86,-21.5"/>
</g>
<!-- gawk -->
<g id="node15" class="node">
<title>gawk</title>
<polygon fill="lightgreen" stroke="black" points="1623,-36 1569,-36 1569,0 1623,0 1623,-36"/>
<text text-anchor="middle" x="1596" y="-14.3" font-family="Times,serif" font-size="14.00">gawk</text>
</g>
<!-- findutils&#45;&gt;gawk -->
<g id="edge14" class="edge">
<title>findutils&#45;&gt;gawk</title>
<path fill="none" stroke="black" d="M1533.18,-18C1541.48,-18 1550.3,-18 1558.6,-18"/>
<polygon fill="black" stroke="black" points="1558.75,-21.5 1568.75,-18 1558.75,-14.5 1558.75,-21.5"/>
</g>
<!-- gnupg2 -->
<g id="node16" class="node">
<title>gnupg2</title>
<polygon fill="lightgreen" stroke="black" points="1730,-36 1659,-36 1659,0 1730,0 1730,-36"/>
<text text-anchor="middle" x="1694.5" y="-14.3" font-family="Times,serif" font-size="14.00">gnupg2</text>
</g>
<!-- gawk&#45;&gt;gnupg2 -->
<g id="edge15" class="edge">
<title>gawk&#45;&gt;gnupg2</title>
<path fill="none" stroke="black" d="M1623.11,-18C1630.98,-18 1639.84,-18 1648.56,-18"/>
<polygon fill="black" stroke="black" points="1648.66,-21.5 1658.66,-18 1648.66,-14.5 1648.66,-21.5"/>
</g>
<!-- grep -->
<g id="node17" class="node">
<title>grep</title>
<polygon fill="lightgreen" stroke="black" points="1820,-36 1766,-36 1766,0 1820,0 1820,-36"/>
<text text-anchor="middle" x="1793" y="-14.3" font-family="Times,serif" font-size="14.00">grep</text>
</g>
<!-- gnupg2&#45;&gt;grep -->
<g id="edge16" class="edge">
<title>gnupg2&#45;&gt;grep</title>
<path fill="none" stroke="black" d="M1730.07,-18C1738.36,-18 1747.23,-18 1755.6,-18"/>
<polygon fill="black" stroke="black" points="1755.85,-21.5 1765.85,-18 1755.85,-14.5 1755.85,-21.5"/>
</g>
<!-- gzip -->
<g id="node18" class="node">
<title>gzip</title>
<polygon fill="lightgreen" stroke="black" points="1910,-36 1856,-36 1856,0 1910,0 1910,-36"/>
<text text-anchor="middle" x="1883" y="-14.3" font-family="Times,serif" font-size="14.00">gzip</text>
</g>
<!-- grep&#45;&gt;gzip -->
<g id="edge17" class="edge">
<title>grep&#45;&gt;gzip</title>
<path fill="none" stroke="black" d="M1820.4,-18C1828.39,-18 1837.31,-18 1845.82,-18"/>
<polygon fill="black" stroke="black" points="1845.92,-21.5 1855.92,-18 1845.92,-14.5 1845.92,-21.5"/>
</g>
<!-- hostname -->
<g id="node19" class="node">
<title>hostname</title>
<polygon fill="lightgreen" stroke="black" points="2032,-36 1946,-36 1946,0 2032,0 2032,-36"/>
<text text-anchor="middle" x="1989" y="-14.3" font-family="Times,serif" font-size="14.00">hostname</text>
</g>
<!-- gzip&#45;&gt;hostname -->
<g id="edge18" class="edge">
<title>gzip&#45;&gt;hostname</title>
<path fill="none" stroke="black" d="M1910.24,-18C1918.11,-18 1927.04,-18 1935.96,-18"/>
<polygon fill="black" stroke="black" points="1935.98,-21.5 1945.98,-18 1935.98,-14.5 1935.98,-21.5"/>
</g>
<!-- init&#45;system&#45;helpers -->
<g id="node20" class="node">
<title>init&#45;system&#45;helpers</title>
<polygon fill="lightgreen" stroke="black" points="2222,-36 2068,-36 2068,0 2222,0 2222,-36"/>
<text text-anchor="middle" x="2145" y="-14.3" font-family="Times,serif" font-size="14.00">init&#45;system&#45;helpers</text>
</g>
<!-- hostname&#45;&gt;init&#45;system&#45;helpers -->
<g id="edge19" class="edge">
<title>hostname&#45;&gt;init&#45;system&#45;helpers</title>
<path fill="none" stroke="black" d="M2032.08,-18C2040.17,-18 2048.91,-18 2057.82,-18"/>
<polygon fill="black" stroke="black" points="2057.92,-21.5 2067.92,-18 2057.92,-14.5 2057.92,-21.5"/>
</g>
<!-- iproute2 -->
<g id="node21" class="node">
<title>iproute2</title>
<polygon fill="lightgreen" stroke="black" points="2335,-36 2258,-36 2258,0 2335,0 2335,-36"/>
<text text-anchor="middle" x="2296.5" y="-14.3" font-family="Times,serif" font-size="14.00">iproute2</text>
</g>
<!-- init&#45;system&#45;helpers&#45;&gt;iproute2 -->
<g id="edge20" class="edge">
<title>init&#45;system&#45;helpers&#45;&gt;iproute2</title>
<path fill="none" stroke="black" d="M2222.06,-18C2230.79,-18 2239.49,-18 2247.69,-18"/>
<polygon fill="black" stroke="black" points="2247.77,-21.5 2257.77,-18 2247.77,-14.5 2247.77,-21.5"/>
</g>
<!-- iputils -->
<g id="node22" class="node">
<title>iputils</title>
<polygon fill="lightgreen" stroke="black" points="2433,-36 2371,-36 2371,0 2433,0 2433,-36"/>
<text text-anchor="middle" x="2402" y="-14.3" font-family="Times,serif" font-size="14.00">iputils</text>
</g>
<!-- iproute2&#45;&gt;iputils -->
<g id="edge21" class="edge">
<title>iproute2&#45;&gt;iputils</title>
<path fill="none" stroke="black" d="M2335.16,-18C2343.54,-18 2352.46,-18 2360.93,-18"/>
<polygon fill="black" stroke="black" points="2360.99,-21.5 2370.99,-18 2360.99,-14.5 2360.99,-21.5"/>
</g>
<!-- isc&#45;dhcp&#45;client -->
<g id="node23" class="node">
<title>isc&#45;dhcp&#45;client</title>
<polygon fill="lightgreen" stroke="black" points="2588,-36 2469,-36 2469,0 2588,0 2588,-36"/>
<text text-anchor="middle" x="2528.5" y="-14.3" font-family="Times,serif" font-size="14.00">isc&#45;dhcp&#45;client</text>
</g>
<!-- iputils&#45;&gt;isc&#45;dhcp&#45;client -->
<g id="edge22" class="edge">
<title>iputils&#45;&gt;isc&#45;dhcp&#45;client</title>
<path fill="none" stroke="black" d="M2433.14,-18C2440.98,-18 2449.76,-18 2458.72,-18"/>
<polygon fill="black" stroke="black" points="2458.88,-21.5 2468.88,-18 2458.88,-14.5 2458.88,-21.5"/>
</g>
<!-- kbd -->
<g id="node24" class="node">
<title>kbd</title>
<polygon fill="lightgreen" stroke="black" points="2678,-36 2624,-36 2624,0 2678,0 2678,-36"/>
<text text-anchor="middle" x="2651" y="-14.3" font-family="Times,serif" font-size="14.00">kbd</text>
</g>
<!-- isc&#45;dhcp&#45;client&#45;&gt;kbd -->
<g id="edge23" class="edge">
<title>isc&#45;dhcp&#45;client&#45;&gt;kbd</title>
<path fill="none" stroke="black" d="M2588.34,-18C2596.98,-18 2605.66,-18 2613.66,-18"/>
<polygon fill="black" stroke="black" points="2613.74,-21.5 2623.74,-18 2613.74,-14.5 2613.74,-21.5"/>
</g>
<!-- kbdcontrol -->
<g id="node25" class="node">
<title>kbdcontrol</title>
<polygon fill="lightgreen" stroke="black" points="2807,-36 2714,-36 2714,0 2807,0 2807,-36"/>
<text text-anchor="middle" x="2760.5" y="-14.3" font-family="Times,serif" font-size="14.00">kbdcontrol</text>
</g>
<!-- kbd&#45;&gt;kbdcontrol -->
<g id="edge24" class="edge">
<title>kbd&#45;&gt;kbdcontrol</title>
<path fill="none" stroke="black" d="M2678.02,-18C2685.88,-18 2694.82,-18 2703.84,-18"/>
<polygon fill="black" stroke="black" points="2703.99,-21.5 2713.99,-18 2703.99,-14.5 2703.99,-21.5"/>
</g>
<!-- make&#45;dfsg -->
<g id="node26" class="node">
<title>make&#45;dfsg</title>
<polygon fill="lightgreen" stroke="black" points="2933,-36 2843,-36 2843,0 2933,0 2933,-36"/>
<text text-anchor="middle" x="2888" y="-14.3" font-family="Times,serif" font-size="14.00">make&#45;dfsg</text>
</g>
<!-- kbdcontrol&#45;&gt;make&#45;dfsg -->
<g id="edge25" class="edge">
<title>kbdcontrol&#45;&gt;make&#45;dfsg</title>
<path fill="none" stroke="black" d="M2807.16,-18C2815.43,-18 2824.13,-18 2832.63,-18"/>
<polygon fill="black" stroke="black" points="2832.84,-21.5 2842.84,-18 2832.84,-14.5 2832.84,-21.5"/>
</g>
<!-- netbase -->
<g id="node27" class="node">
<title>netbase</title>
<polygon fill="lightgreen" stroke="black" points="3042,-36 2969,-36 2969,0 3042,0 3042,-36"/>
<text text-anchor="middle" x="3005.5" y="-14.3" font-family="Times,serif" font-size="14.00">netbase</text>
</g>
<!-- make&#45;dfsg&#45;&gt;netbase -->
<g id="edge26" class="edge">
<title>make&#45;dfsg&#45;&gt;netbase</title>
<path fill="none" stroke="black" d="M2933.32,-18C2941.56,-18 2950.17,-18 2958.45,-18"/>
<polygon fill="black" stroke="black" points="2958.71,-21.5 2968.71,-18 2958.71,-14.5 2958.71,-21.5"/>
</g>
<!-- openssh -->
<g id="node28" class="node">
<title>openssh</title>
<polygon fill="lightgreen" stroke="black" points="3153,-36 3078,-36 3078,0 3153,0 3153,-36"/>
<text text-anchor="middle" x="3115.5" y="-14.3" font-family="Times,serif" font-size="14.00">openssh</text>
</g>
<!-- netbase&#45;&gt;openssh -->
<g id="edge27" class="edge">
<title>netbase&#45;&gt;openssh</title>
<path fill="none" stroke="black" d="M3042.16,-18C3050.29,-18 3059.04,-18 3067.56,-18"/>
<polygon fill="black" stroke="black" points="3067.77,-21.5 3077.77,-18 3067.77,-14.5 3067.77,-21.5"/>
</g>
<!-- pkgconf -->
<g id="node29" class="node">
<title>pkgconf</title>
<polygon fill="lightgreen" stroke="black" points="3262,-36 3189,-36 3189,0 3262,0 3262,-36"/>
<text text-anchor="middle" x="3225.5" y="-14.3" font-family="Times,serif" font-size="14.00">pkgconf</text>
</g>
<!-- openssh&#45;&gt;pkgconf -->
<g id="edge28" class="edge">
<title>openssh&#45;&gt;pkgconf</title>
<path fill="none" stroke="black" d="M3153.06,-18C3161.24,-18 3170.02,-18 3178.53,-18"/>
<polygon fill="black" stroke="black" points="3178.71,-21.5 3188.71,-18 3178.71,-14.5 3178.71,-21.5"/>
</g>
<!-- procps -->
<g id="node30" class="node">
<title>procps</title>
<polygon fill="lightgreen" stroke="black" points="3363,-36 3298,-36 3298,0 3363,0 3363,-36"/>
<text text-anchor="middle" x="3330.5" y="-14.3" font-family="Times,serif" font-size="14.00">procps</text>
</g>
<!-- pkgconf&#45;&gt;procps -->
<g id="edge29" class="edge">
<title>pkgconf&#45;&gt;procps</title>
<path fill="none" stroke="black" d="M3262.24,-18C3270.5,-18 3279.36,-18 3287.85,-18"/>
<polygon fill="black" stroke="black" points="3287.95,-21.5 3297.95,-18 3287.95,-14.5 3287.95,-21.5"/>
</g>
<!-- sed -->
<g id="node31" class="node">
<title>sed</title>
<polygon fill="lightgreen" stroke="black" points="3453,-36 3399,-36 3399,0 3453,0 3453,-36"/>
<text text-anchor="middle" x="3426" y="-14.3" font-family="Times,serif" font-size="14.00">sed</text>
</g>
<!-- procps&#45;&gt;sed -->
<g id="edge30" class="edge">
<title>procps&#45;&gt;sed</title>
<path fill="none" stroke="black" d="M3363.15,-18C3371.44,-18 3380.44,-18 3388.93,-18"/>
<polygon fill="black" stroke="black" points="3388.97,-21.5 3398.97,-18 3388.97,-14.5 3388.97,-21.5"/>
</g>
<!-- shadow -->
<g id="node32" class="node">
<title>shadow</title>
<polygon fill="lightgreen" stroke="black" points="3560,-36 3489,-36 3489,0 3560,0 3560,-36"/>
<text text-anchor="middle" x="3524.5" y="-14.3" font-family="Times,serif" font-size="14.00">shadow</text>
</g>
<!-- sed&#45;&gt;shadow -->
<g id="edge31" class="edge">
<title>sed&#45;&gt;shadow</title>
<path fill="none" stroke="black" d="M3453.11,-18C3460.98,-18 3469.84,-18 3478.56,-18"/>
<polygon fill="black" stroke="black" points="3478.66,-21.5 3488.66,-18 3478.66,-14.5 3478.66,-21.5"/>
</g>
<!-- systemd -->
<g id="node33" class="node">
<title>systemd</title>
<polygon fill="lightgreen" stroke="black" points="3673,-36 3596,-36 3596,0 3673,0 3673,-36"/>
<text text-anchor="middle" x="3634.5" y="-14.3" font-family="Times,serif" font-size="14.00">systemd</text>
</g>
<!-- shadow&#45;&gt;systemd -->
<g id="edge32" class="edge">
<title>shadow&#45;&gt;systemd</title>
<path fill="none" stroke="black" d="M3560.27,-18C3568.33,-18 3577.06,-18 3585.58,-18"/>
<polygon fill="black" stroke="black" points="3585.81,-21.5 3595.81,-18 3585.81,-14.5 3585.81,-21.5"/>
</g>
<!-- tar -->
<g id="node34" class="node">
<title>tar</title>
<polygon fill="lightgreen" stroke="black" points="3763,-36 3709,-36 3709,0 3763,0 3763,-36"/>
<text text-anchor="middle" x="3736" y="-14.3" font-family="Times,serif" font-size="14.00">tar</text>
</g>
<!-- systemd&#45;&gt;tar -->
<g id="edge33" class="edge">
<title>systemd&#45;&gt;tar</title>
<path fill="none" stroke="black" d="M3673.12,-18C3681.47,-18 3690.32,-18 3698.63,-18"/>
<polygon fill="black" stroke="black" points="3698.78,-21.5 3708.78,-18 3698.78,-14.5 3698.78,-21.5"/>
</g>
<!-- ubuntu&#45;keyring -->
<g id="node35" class="node">
<title>ubuntu&#45;keyring</title>
<polygon fill="lightgreen" stroke="black" points="3925,-36 3799,-36 3799,0 3925,0 3925,-36"/>
<text text-anchor="middle" x="3862" y="-14.3" font-family="Times,serif" font-size="14.00">ubuntu&#45;keyring</text>
</g>
<!-- tar&#45;&gt;ubuntu&#45;keyring -->
<g id="edge34" class="edge">
<title>tar&#45;&gt;ubuntu&#45;keyring</title>
<path fill="none" stroke="black" d="M3763.3,-18C3770.89,-18 3779.57,-18 3788.54,-18"/>
<polygon fill="black" stroke="black" points="3788.77,-21.5 3798.77,-18 3788.77,-14.5 3788.77,-21.5"/>
</g>
<!-- util&#45;linux -->
<g id="node36" class="node">
<title>util&#45;linux</title>
<polygon fill="lightgreen" stroke="black" points="4041,-36 3961,-36 3961,0 4041,0 4041,-36"/>
<text text-anchor="middle" x="4001" y="-14.3" font-family="Times,serif" font-size="14.00">util&#45;linux</text>
</g>
<!-- ubuntu&#45;keyring&#45;&gt;util&#45;linux -->
<g id="edge35" class="edge">
<title>ubuntu&#45;keyring&#45;&gt;util&#45;linux</title>
<path fill="none" stroke="black" d="M3925.09,-18C3933.65,-18 3942.35,-18 3950.64,-18"/>
<polygon fill="black" stroke="black" points="3950.88,-21.5 3960.88,-18 3950.88,-14.5 3950.88,-21.5"/>
</g>
<!-- wget -->
<g id="node37" class="node">
<title>wget</title>
<polygon fill="lightgreen" stroke="black" points="4131,-36 4077,-36 4077,0 4131,0 4131,-36"/>
<text text-anchor="middle" x="4104" y="-14.3" font-family="Times,serif" font-size="14.00">wget</text>
</g>
<!-- util&#45;linux&#45;&gt;wget -->
<g id="edge36" class="edge">
<title>util&#45;linux&#45;&gt;wget</title>
<path fill="none" stroke="black" d="M4041.05,-18C4049.48,-18 4058.36,-18 4066.68,-18"/>
<polygon fill="black" stroke="black" points="4066.85,-21.5 4076.85,-18 4066.85,-14.5 4066.85,-21.5"/>
</g>
<!-- xz&#45;utils -->
<g id="node38" class="node">
<title>xz&#45;utils</title>
<polygon fill="lightgreen" stroke="black" points="4235,-36 4167,-36 4167,0 4235,0 4235,-36"/>
<text text-anchor="middle" x="4201" y="-14.3" font-family="Times,serif" font-size="14.00">xz&#45;utils</text>
</g>
<!-- wget&#45;&gt;xz&#45;utils -->
<g id="edge37" class="edge">
<title>wget&#45;&gt;xz&#45;utils</title>
<path fill="none" stroke="black" d="M4131.21,-18C4139.11,-18 4147.99,-18 4156.69,-18"/>
<polygon fill="black" stroke="black" points="4156.74,-21.5 4166.74,-18 4156.74,-14.5 4156.74,-21.5"/>
</g>
</g>
</svg>
