<?xml version="1.0" encoding="UTF-8" standalone="no"?>
<!DOCTYPE svg PUBLIC "-//W3C//DTD SVG 1.1//EN"
 "http://www.w3.org/Graphics/SVG/1.1/DTD/svg11.dtd">
<!-- Generated by graphviz version 2.43.0 (0)
 -->
<!-- Title: BuildOrder Pages: 1 -->
<svg width="515pt" height="476pt"
 viewBox="0.00 0.00 515.00 476.00" xmlns="http://www.w3.org/2000/svg" xmlns:xlink="http://www.w3.org/1999/xlink">
<g id="graph0" class="graph" transform="scale(1 1) rotate(0) translate(4 472)">
<title>BuildOrder</title>
<polygon fill="white" stroke="transparent" points="-4,4 -4,-472 511,-472 511,4 -4,4"/>
<g id="clust1" class="cluster">
<title>cluster_core</title>
<polygon fill="none" stroke="red" points="84,-163 84,-460 206,-460 206,-163 84,-163"/>
<text text-anchor="middle" x="145" y="-444.8" font-family="Times,serif" font-size="14.00">Core System</text>
</g>
<g id="clust2" class="cluster">
<title>cluster_build</title>
<polygon fill="none" stroke="green" points="8,-8 8,-155 188,-155 188,-8 8,-8"/>
<text text-anchor="middle" x="98" y="-139.8" font-family="Times,serif" font-size="14.00">Build Tools</text>
</g>
<g id="clust3" class="cluster">
<title>cluster_system</title>
<polygon fill="none" stroke="blue" points="214,-80 214,-310 349,-310 349,-80 214,-80"/>
<text text-anchor="middle" x="281.5" y="-294.8" font-family="Times,serif" font-size="14.00">System Services</text>
</g>
<g id="clust4" class="cluster">
<title>cluster_network</title>
<polygon fill="none" stroke="orange" points="357,-80 357,-385 499,-385 499,-80 357,-80"/>
<text text-anchor="middle" x="428" y="-369.8" font-family="Times,serif" font-size="14.00">Network</text>
</g>
<!-- base&#45;files -->
<g id="node1" class="node">
<title>base&#45;files</title>
<polygon fill="lightblue" stroke="black" points="191.5,-429 108.5,-429 108.5,-393 191.5,-393 191.5,-429"/>
<text text-anchor="middle" x="150" y="-407.3" font-family="Times,serif" font-size="14.00">base&#45;files</text>
</g>
<!-- base&#45;passwd -->
<g id="node2" class="node">
<title>base&#45;passwd</title>
<polygon fill="lightblue" stroke="black" points="198.5,-354 91.5,-354 91.5,-318 198.5,-318 198.5,-354"/>
<text text-anchor="middle" x="145" y="-332.3" font-family="Times,serif" font-size="14.00">base&#45;passwd</text>
</g>
<!-- base&#45;files&#45;&gt;base&#45;passwd -->
<g id="edge1" class="edge">
<title>base&#45;files&#45;&gt;base&#45;passwd</title>
<path fill="none" stroke="black" d="M148.82,-392.7C148.24,-384.25 147.53,-373.87 146.87,-364.37"/>
<polygon fill="black" stroke="black" points="150.35,-363.91 146.18,-354.18 143.37,-364.39 150.35,-363.91"/>
</g>
<!-- netbase -->
<g id="node11" class="node">
<title>netbase</title>
<polygon fill="lightblue" stroke="black" points="439.5,-354 366.5,-354 366.5,-318 439.5,-318 439.5,-354"/>
<text text-anchor="middle" x="403" y="-332.3" font-family="Times,serif" font-size="14.00">netbase</text>
</g>
<!-- base&#45;files&#45;&gt;netbase -->
<g id="edge13" class="edge">
<title>base&#45;files&#45;&gt;netbase</title>
<path fill="none" stroke="black" d="M191.78,-397.95C237.11,-384.86 309.32,-364.03 356.44,-350.43"/>
<polygon fill="black" stroke="black" points="357.46,-353.78 366.1,-347.65 355.52,-347.06 357.46,-353.78"/>
</g>
<!-- bash -->
<g id="node3" class="node">
<title>bash</title>
<polygon fill="lightblue" stroke="black" points="179,-279 125,-279 125,-243 179,-243 179,-279"/>
<text text-anchor="middle" x="152" y="-257.3" font-family="Times,serif" font-size="14.00">bash</text>
</g>
<!-- base&#45;passwd&#45;&gt;bash -->
<g id="edge2" class="edge">
<title>base&#45;passwd&#45;&gt;bash</title>
<path fill="none" stroke="black" d="M146.66,-317.7C147.47,-309.25 148.46,-298.87 149.38,-289.37"/>
<polygon fill="black" stroke="black" points="152.88,-289.46 150.35,-279.18 145.91,-288.8 152.88,-289.46"/>
</g>
<!-- coreutils -->
<g id="node4" class="node">
<title>coreutils</title>
<polygon fill="lightblue" stroke="black" points="191.5,-207 112.5,-207 112.5,-171 191.5,-171 191.5,-207"/>
<text text-anchor="middle" x="152" y="-185.3" font-family="Times,serif" font-size="14.00">coreutils</text>
</g>
<!-- bash&#45;&gt;coreutils -->
<g id="edge3" class="edge">
<title>bash&#45;&gt;coreutils</title>
<path fill="none" stroke="black" d="M152,-242.7C152,-234.98 152,-225.71 152,-217.11"/>
<polygon fill="black" stroke="black" points="155.5,-217.1 152,-207.1 148.5,-217.1 155.5,-217.1"/>
</g>
<!-- systemd -->
<g id="node8" class="node">
<title>systemd</title>
<polygon fill="lightblue" stroke="black" points="308.5,-207 231.5,-207 231.5,-171 308.5,-171 308.5,-207"/>
<text text-anchor="middle" x="270" y="-185.3" font-family="Times,serif" font-size="14.00">systemd</text>
</g>
<!-- bash&#45;&gt;systemd -->
<g id="edge12" class="edge">
<title>bash&#45;&gt;systemd</title>
<path fill="none" stroke="black" d="M179.07,-243.94C194.83,-234.59 214.94,-222.66 232.24,-212.4"/>
<polygon fill="black" stroke="black" points="234.18,-215.32 240.99,-207.21 230.61,-209.3 234.18,-215.32"/>
</g>
<!-- make -->
<g id="node5" class="node">
<title>make</title>
<polygon fill="lightblue" stroke="black" points="179.5,-124 124.5,-124 124.5,-88 179.5,-88 179.5,-124"/>
<text text-anchor="middle" x="152" y="-102.3" font-family="Times,serif" font-size="14.00">make</text>
</g>
<!-- coreutils&#45;&gt;make -->
<g id="edge11" class="edge">
<title>coreutils&#45;&gt;make</title>
<path fill="none" stroke="black" d="M152,-170.82C152,-160.19 152,-146.31 152,-134.2"/>
<polygon fill="black" stroke="black" points="155.5,-134.15 152,-124.15 148.5,-134.15 155.5,-134.15"/>
</g>
<!-- build&#45;essential -->
<g id="node6" class="node">
<title>build&#45;essential</title>
<polygon fill="lightblue" stroke="black" points="158.5,-52 37.5,-52 37.5,-16 158.5,-16 158.5,-52"/>
<text text-anchor="middle" x="98" y="-30.3" font-family="Times,serif" font-size="14.00">build&#45;essential</text>
</g>
<!-- make&#45;&gt;build&#45;essential -->
<g id="edge4" class="edge">
<title>make&#45;&gt;build&#45;essential</title>
<path fill="none" stroke="black" d="M138.65,-87.7C132.24,-79.39 124.44,-69.28 117.39,-60.14"/>
<polygon fill="black" stroke="black" points="120.07,-57.88 111.19,-52.1 114.53,-62.16 120.07,-57.88"/>
</g>
<!-- pkg&#45;config -->
<g id="node7" class="node">
<title>pkg&#45;config</title>
<polygon fill="lightblue" stroke="black" points="106,-124 16,-124 16,-88 106,-88 106,-124"/>
<text text-anchor="middle" x="61" y="-102.3" font-family="Times,serif" font-size="14.00">pkg&#45;config</text>
</g>
<!-- pkg&#45;config&#45;&gt;build&#45;essential -->
<g id="edge5" class="edge">
<title>pkg&#45;config&#45;&gt;build&#45;essential</title>
<path fill="none" stroke="black" d="M70.15,-87.7C74.4,-79.64 79.56,-69.89 84.27,-60.98"/>
<polygon fill="black" stroke="black" points="87.38,-62.58 88.96,-52.1 81.19,-59.31 87.38,-62.58"/>
</g>
<!-- systemd&#45;sysv -->
<g id="node9" class="node">
<title>systemd&#45;sysv</title>
<polygon fill="lightblue" stroke="black" points="335.5,-124 222.5,-124 222.5,-88 335.5,-88 335.5,-124"/>
<text text-anchor="middle" x="279" y="-102.3" font-family="Times,serif" font-size="14.00">systemd&#45;sysv</text>
</g>
<!-- systemd&#45;&gt;systemd&#45;sysv -->
<g id="edge6" class="edge">
<title>systemd&#45;&gt;systemd&#45;sysv</title>
<path fill="none" stroke="black" d="M271.91,-170.82C273.09,-160.19 274.63,-146.31 275.98,-134.2"/>
<polygon fill="black" stroke="black" points="279.47,-134.48 277.09,-124.15 272.51,-133.71 279.47,-134.48"/>
</g>
<!-- udev -->
<g id="node10" class="node">
<title>udev</title>
<polygon fill="lightblue" stroke="black" points="297,-279 243,-279 243,-243 297,-243 297,-279"/>
<text text-anchor="middle" x="270" y="-257.3" font-family="Times,serif" font-size="14.00">udev</text>
</g>
<!-- udev&#45;&gt;systemd -->
<g id="edge7" class="edge">
<title>udev&#45;&gt;systemd</title>
<path fill="none" stroke="black" d="M270,-242.7C270,-234.98 270,-225.71 270,-217.11"/>
<polygon fill="black" stroke="black" points="273.5,-217.1 270,-207.1 266.5,-217.1 273.5,-217.1"/>
</g>
<!-- iproute2 -->
<g id="node12" class="node">
<title>iproute2</title>
<polygon fill="lightblue" stroke="black" points="447.5,-279 370.5,-279 370.5,-243 447.5,-243 447.5,-279"/>
<text text-anchor="middle" x="409" y="-257.3" font-family="Times,serif" font-size="14.00">iproute2</text>
</g>
<!-- netbase&#45;&gt;iproute2 -->
<g id="edge8" class="edge">
<title>netbase&#45;&gt;iproute2</title>
<path fill="none" stroke="black" d="M404.42,-317.7C405.12,-309.25 405.97,-298.87 406.75,-289.37"/>
<polygon fill="black" stroke="black" points="410.26,-289.43 407.59,-279.18 403.28,-288.86 410.26,-289.43"/>
</g>
<!-- iputils&#45;ping -->
<g id="node13" class="node">
<title>iputils&#45;ping</title>
<polygon fill="lightblue" stroke="black" points="470,-207 372,-207 372,-171 470,-171 470,-207"/>
<text text-anchor="middle" x="421" y="-185.3" font-family="Times,serif" font-size="14.00">iputils&#45;ping</text>
</g>
<!-- iproute2&#45;&gt;iputils&#45;ping -->
<g id="edge9" class="edge">
<title>iproute2&#45;&gt;iputils&#45;ping</title>
<path fill="none" stroke="black" d="M411.97,-242.7C413.29,-234.98 414.88,-225.71 416.35,-217.11"/>
<polygon fill="black" stroke="black" points="419.83,-217.55 418.07,-207.1 412.93,-216.37 419.83,-217.55"/>
</g>
<!-- openssh&#45;server -->
<g id="node14" class="node">
<title>openssh&#45;server</title>
<polygon fill="lightblue" stroke="black" points="490.5,-124 365.5,-124 365.5,-88 490.5,-88 490.5,-124"/>
<text text-anchor="middle" x="428" y="-102.3" font-family="Times,serif" font-size="14.00">openssh&#45;server</text>
</g>
<!-- iputils&#45;ping&#45;&gt;openssh&#45;server -->
<g id="edge10" class="edge">
<title>iputils&#45;ping&#45;&gt;openssh&#45;server</title>
<path fill="none" stroke="black" d="M422.48,-170.82C423.4,-160.19 424.6,-146.31 425.65,-134.2"/>
<polygon fill="black" stroke="black" points="429.14,-134.42 426.52,-124.15 422.17,-133.81 429.14,-134.42"/>
</g>
</g>
</svg>
